<mxfile host="Electron" modified="2023-04-27T16:23:01.284Z" agent="Mozilla/5.0 (Macintosh; Intel Mac OS X 10_15_7) AppleWebKit/537.36 (KHTML, like Gecko) draw.io/21.2.1 Chrome/112.0.5615.87 Electron/24.1.2 Safari/537.36" etag="lBGy16toIA3HkSMvsQ7g" version="21.2.1" type="device">
  <diagram name="Page-1" id="5f0bae14-7c28-e335-631c-24af17079c00">
    <mxGraphModel dx="-64" dy="993" grid="1" gridSize="10" guides="1" tooltips="1" connect="1" arrows="1" fold="1" page="1" pageScale="1" pageWidth="1654" pageHeight="1169" background="none" math="0" shadow="0">
      <root>
        <mxCell id="0" />
        <mxCell id="1" parent="0" />
        <mxCell id="Eb74jcbBmfAYv8j1r35D-264" value="Admin panel" style="shape=umlFrame;whiteSpace=wrap;html=1;fontSize=16;width=160;height=30;strokeWidth=5;" parent="1" vertex="1">
          <mxGeometry x="1830" y="457.5" width="420" height="370" as="geometry" />
        </mxCell>
        <mxCell id="Eb74jcbBmfAYv8j1r35D-298" value="Async_API" style="shape=umlFrame;whiteSpace=wrap;html=1;fontSize=16;width=120;height=33;strokeWidth=5;" parent="1" vertex="1">
          <mxGeometry x="2310" y="457.5" width="440" height="710" as="geometry" />
        </mxCell>
        <mxCell id="Eb74jcbBmfAYv8j1r35D-292" value="ETL" style="shape=umlFrame;whiteSpace=wrap;html=1;fontSize=16;width=80;height=30;strokeWidth=3;fillColor=#d5e8d4;strokeColor=#82b366;shadow=0;" parent="1" vertex="1">
          <mxGeometry x="2340" y="697.5" width="350" height="300" as="geometry" />
        </mxCell>
        <mxCell id="N9f-XCtG2Ctu3wirs6zr-1" style="edgeStyle=orthogonalEdgeStyle;rounded=0;orthogonalLoop=1;jettySize=auto;html=1;strokeWidth=4;" edge="1" parent="1" source="Eb74jcbBmfAYv8j1r35D-250" target="Eb74jcbBmfAYv8j1r35D-262">
          <mxGeometry relative="1" as="geometry">
            <Array as="points">
              <mxPoint x="2260" y="420" />
              <mxPoint x="2130" y="420" />
            </Array>
          </mxGeometry>
        </mxCell>
        <mxCell id="N9f-XCtG2Ctu3wirs6zr-2" style="edgeStyle=orthogonalEdgeStyle;rounded=0;orthogonalLoop=1;jettySize=auto;html=1;strokeWidth=4;" edge="1" parent="1" source="Eb74jcbBmfAYv8j1r35D-250" target="Eb74jcbBmfAYv8j1r35D-266">
          <mxGeometry relative="1" as="geometry">
            <Array as="points">
              <mxPoint x="2300" y="420" />
              <mxPoint x="2470" y="420" />
            </Array>
          </mxGeometry>
        </mxCell>
        <mxCell id="Eb74jcbBmfAYv8j1r35D-250" value="Nginx" style="rounded=1;whiteSpace=wrap;html=1;fontSize=16;" parent="1" vertex="1">
          <mxGeometry x="2230" y="320" width="100" height="30" as="geometry" />
        </mxCell>
        <mxCell id="Eb74jcbBmfAYv8j1r35D-251" style="edgeStyle=orthogonalEdgeStyle;rounded=0;orthogonalLoop=1;jettySize=auto;html=1;exitX=0.5;exitY=1;exitDx=0;exitDy=0;entryX=0.5;entryY=0;entryDx=0;entryDy=0;strokeWidth=2;fontSize=16;" parent="1" source="Eb74jcbBmfAYv8j1r35D-252" target="Eb74jcbBmfAYv8j1r35D-250" edge="1">
          <mxGeometry relative="1" as="geometry" />
        </mxCell>
        <mxCell id="Eb74jcbBmfAYv8j1r35D-494" style="edgeStyle=orthogonalEdgeStyle;rounded=0;orthogonalLoop=1;jettySize=auto;html=1;exitX=0;exitY=0.75;exitDx=0;exitDy=0;entryX=0;entryY=0.5;entryDx=0;entryDy=0;strokeWidth=4;startArrow=none;startFill=0;endArrow=classic;endFill=1;" parent="1" source="Eb74jcbBmfAYv8j1r35D-252" target="Eb74jcbBmfAYv8j1r35D-254" edge="1">
          <mxGeometry relative="1" as="geometry">
            <Array as="points">
              <mxPoint x="1800" y="268" />
              <mxPoint x="1800" y="658" />
            </Array>
          </mxGeometry>
        </mxCell>
        <mxCell id="Eb74jcbBmfAYv8j1r35D-252" value="" style="shape=actor;whiteSpace=wrap;html=1;fontSize=16;" parent="1" vertex="1">
          <mxGeometry x="2260" y="230" width="40" height="50" as="geometry" />
        </mxCell>
        <mxCell id="Eb74jcbBmfAYv8j1r35D-253" value="Sqlite_dump" style="shape=cylinder3;whiteSpace=wrap;html=1;boundedLbl=1;backgroundOutline=1;size=15;fontSize=16;fillColor=#d5e8d4;strokeColor=#82b366;" parent="1" vertex="1">
          <mxGeometry x="1860" y="507.5" width="140" height="80" as="geometry" />
        </mxCell>
        <mxCell id="Eb74jcbBmfAYv8j1r35D-260" style="edgeStyle=orthogonalEdgeStyle;rounded=0;orthogonalLoop=1;jettySize=auto;html=1;exitX=0.5;exitY=0;exitDx=0;exitDy=0;entryX=0.5;entryY=1;entryDx=0;entryDy=0;entryPerimeter=0;strokeWidth=2;startArrow=classic;startFill=1;endArrow=classic;endFill=1;fillColor=#d5e8d4;strokeColor=#82b366;" parent="1" source="Eb74jcbBmfAYv8j1r35D-254" target="Eb74jcbBmfAYv8j1r35D-253" edge="1">
          <mxGeometry relative="1" as="geometry" />
        </mxCell>
        <mxCell id="Eb74jcbBmfAYv8j1r35D-431" style="edgeStyle=orthogonalEdgeStyle;rounded=0;orthogonalLoop=1;jettySize=auto;html=1;exitX=0.5;exitY=1;exitDx=0;exitDy=0;entryX=0;entryY=0.5;entryDx=0;entryDy=0;entryPerimeter=0;strokeWidth=2;startArrow=none;startFill=0;endArrow=classic;endFill=1;fillColor=#d5e8d4;strokeColor=#82b366;" parent="1" source="Eb74jcbBmfAYv8j1r35D-254" target="Eb74jcbBmfAYv8j1r35D-258" edge="1">
          <mxGeometry relative="1" as="geometry" />
        </mxCell>
        <mxCell id="Eb74jcbBmfAYv8j1r35D-254" value="_ETL" style="rounded=1;whiteSpace=wrap;html=1;fontSize=16;fillColor=#d5e8d4;strokeColor=#82b366;" parent="1" vertex="1">
          <mxGeometry x="1860" y="637.5" width="140" height="40" as="geometry" />
        </mxCell>
        <mxCell id="Eb74jcbBmfAYv8j1r35D-258" value="Movie_DB" style="shape=cylinder3;whiteSpace=wrap;html=1;boundedLbl=1;backgroundOutline=1;size=15;fontSize=16;" parent="1" vertex="1">
          <mxGeometry x="1960" y="727.5" width="130" height="80" as="geometry" />
        </mxCell>
        <mxCell id="Eb74jcbBmfAYv8j1r35D-432" style="edgeStyle=orthogonalEdgeStyle;rounded=0;orthogonalLoop=1;jettySize=auto;html=1;exitX=0.5;exitY=1;exitDx=0;exitDy=0;entryX=0.5;entryY=0;entryDx=0;entryDy=0;entryPerimeter=0;strokeWidth=2;startArrow=classic;startFill=1;endArrow=classic;endFill=1;" parent="1" source="Eb74jcbBmfAYv8j1r35D-262" target="Eb74jcbBmfAYv8j1r35D-258" edge="1">
          <mxGeometry relative="1" as="geometry" />
        </mxCell>
        <mxCell id="Eb74jcbBmfAYv8j1r35D-262" value="Admin_panel" style="rounded=1;whiteSpace=wrap;html=1;fontSize=16;fillColor=#f5f5f5;strokeColor=#666666;fontColor=#333333;" parent="1" vertex="1">
          <mxGeometry x="2030" y="507.5" width="200" height="170" as="geometry" />
        </mxCell>
        <mxCell id="Eb74jcbBmfAYv8j1r35D-266" value="Movie_API" style="rounded=1;whiteSpace=wrap;html=1;fontSize=16;fillColor=#f5f5f5;strokeColor=#666666;fontColor=#333333;" parent="1" vertex="1">
          <mxGeometry x="2357" y="507.5" width="200" height="40" as="geometry" />
        </mxCell>
        <mxCell id="Eb74jcbBmfAYv8j1r35D-268" style="edgeStyle=orthogonalEdgeStyle;rounded=0;orthogonalLoop=1;jettySize=auto;html=1;exitX=0.5;exitY=0;exitDx=0;exitDy=0;entryX=0.5;entryY=1;entryDx=0;entryDy=0;strokeWidth=2;startArrow=classic;startFill=1;endArrow=classic;endFill=1;" parent="1" source="Eb74jcbBmfAYv8j1r35D-267" target="Eb74jcbBmfAYv8j1r35D-266" edge="1">
          <mxGeometry relative="1" as="geometry" />
        </mxCell>
        <mxCell id="Eb74jcbBmfAYv8j1r35D-270" style="edgeStyle=orthogonalEdgeStyle;rounded=0;orthogonalLoop=1;jettySize=auto;html=1;exitX=1;exitY=0.5;exitDx=0;exitDy=0;entryX=0;entryY=0.5;entryDx=0;entryDy=0;strokeWidth=2;startArrow=classic;startFill=1;endArrow=classic;endFill=1;" parent="1" source="Eb74jcbBmfAYv8j1r35D-267" target="Eb74jcbBmfAYv8j1r35D-269" edge="1">
          <mxGeometry relative="1" as="geometry" />
        </mxCell>
        <mxCell id="Eb74jcbBmfAYv8j1r35D-267" value="Search_service" style="rounded=1;whiteSpace=wrap;html=1;fontSize=16;fillColor=#f5f5f5;strokeColor=#666666;fontColor=#333333;" parent="1" vertex="1">
          <mxGeometry x="2357" y="597.5" width="200" height="40" as="geometry" />
        </mxCell>
        <mxCell id="Eb74jcbBmfAYv8j1r35D-269" value="Cache" style="rounded=1;whiteSpace=wrap;html=1;fontSize=16;fillColor=#f5f5f5;strokeColor=#666666;fontColor=#333333;dashed=1;" parent="1" vertex="1">
          <mxGeometry x="2607" y="597.5" width="80" height="40" as="geometry" />
        </mxCell>
        <mxCell id="Eb74jcbBmfAYv8j1r35D-297" style="edgeStyle=orthogonalEdgeStyle;rounded=0;orthogonalLoop=1;jettySize=auto;html=1;exitX=0.5;exitY=1;exitDx=0;exitDy=0;exitPerimeter=0;entryX=0.5;entryY=1;entryDx=0;entryDy=0;strokeWidth=2;startArrow=classic;startFill=1;endArrow=classic;endFill=1;" parent="1" source="Eb74jcbBmfAYv8j1r35D-271" target="Eb74jcbBmfAYv8j1r35D-267" edge="1">
          <mxGeometry relative="1" as="geometry">
            <Array as="points">
              <mxPoint x="2457" y="1147.5" />
              <mxPoint x="2721" y="1147.5" />
              <mxPoint x="2721" y="667.5" />
              <mxPoint x="2457" y="667.5" />
            </Array>
          </mxGeometry>
        </mxCell>
        <mxCell id="Eb74jcbBmfAYv8j1r35D-271" value="Elasticsearch" style="shape=cylinder3;whiteSpace=wrap;html=1;boundedLbl=1;backgroundOutline=1;size=15;fontSize=16;fillColor=#f5f5f5;fontColor=#333333;strokeColor=#666666;" parent="1" vertex="1">
          <mxGeometry x="2392" y="1037.5" width="130" height="80" as="geometry" />
        </mxCell>
        <mxCell id="Eb74jcbBmfAYv8j1r35D-278" style="edgeStyle=orthogonalEdgeStyle;rounded=0;orthogonalLoop=1;jettySize=auto;html=1;exitX=0.5;exitY=1;exitDx=0;exitDy=0;entryX=0.5;entryY=0;entryDx=0;entryDy=0;strokeWidth=2;startArrow=none;startFill=0;endArrow=classic;endFill=1;fillColor=#d5e8d4;strokeColor=#82b366;" parent="1" source="Eb74jcbBmfAYv8j1r35D-272" target="Eb74jcbBmfAYv8j1r35D-273" edge="1">
          <mxGeometry relative="1" as="geometry" />
        </mxCell>
        <mxCell id="Eb74jcbBmfAYv8j1r35D-295" style="edgeStyle=orthogonalEdgeStyle;rounded=0;orthogonalLoop=1;jettySize=auto;html=1;exitX=1;exitY=0.75;exitDx=0;exitDy=0;entryX=0;entryY=0.25;entryDx=0;entryDy=0;strokeWidth=2;startArrow=classic;startFill=1;endArrow=classic;endFill=1;fillColor=#d5e8d4;strokeColor=#82b366;" parent="1" source="Eb74jcbBmfAYv8j1r35D-272" target="Eb74jcbBmfAYv8j1r35D-275" edge="1">
          <mxGeometry relative="1" as="geometry" />
        </mxCell>
        <mxCell id="Eb74jcbBmfAYv8j1r35D-300" style="edgeStyle=orthogonalEdgeStyle;rounded=0;orthogonalLoop=1;jettySize=auto;html=1;exitX=0;exitY=0.5;exitDx=0;exitDy=0;strokeWidth=4;startArrow=none;startFill=1;endArrow=classic;endFill=1;fillColor=#d5e8d4;strokeColor=#82b366;" parent="1" source="Eb74jcbBmfAYv8j1r35D-560" target="Eb74jcbBmfAYv8j1r35D-559" edge="1">
          <mxGeometry relative="1" as="geometry">
            <mxPoint x="1980" y="767.5" as="targetPoint" />
            <Array as="points">
              <mxPoint x="2190" y="968.5" />
            </Array>
          </mxGeometry>
        </mxCell>
        <mxCell id="Eb74jcbBmfAYv8j1r35D-272" value="Extractor" style="rounded=1;whiteSpace=wrap;html=1;fontSize=16;fillColor=#d5e8d4;strokeColor=#82b366;" parent="1" vertex="1">
          <mxGeometry x="2377" y="747.5" width="160" height="40" as="geometry" />
        </mxCell>
        <mxCell id="Eb74jcbBmfAYv8j1r35D-279" style="edgeStyle=orthogonalEdgeStyle;rounded=0;orthogonalLoop=1;jettySize=auto;html=1;exitX=0.5;exitY=1;exitDx=0;exitDy=0;entryX=0.5;entryY=0;entryDx=0;entryDy=0;strokeWidth=2;startArrow=none;startFill=0;endArrow=classic;endFill=1;fillColor=#d5e8d4;strokeColor=#82b366;" parent="1" source="Eb74jcbBmfAYv8j1r35D-273" target="Eb74jcbBmfAYv8j1r35D-274" edge="1">
          <mxGeometry relative="1" as="geometry" />
        </mxCell>
        <mxCell id="Eb74jcbBmfAYv8j1r35D-273" value="Transformer" style="rounded=1;whiteSpace=wrap;html=1;fontSize=16;fillColor=#d5e8d4;strokeColor=#82b366;" parent="1" vertex="1">
          <mxGeometry x="2377" y="837.5" width="160" height="40" as="geometry" />
        </mxCell>
        <mxCell id="Eb74jcbBmfAYv8j1r35D-294" style="edgeStyle=orthogonalEdgeStyle;rounded=0;orthogonalLoop=1;jettySize=auto;html=1;exitX=1;exitY=0.5;exitDx=0;exitDy=0;entryX=0;entryY=0.75;entryDx=0;entryDy=0;strokeWidth=2;startArrow=classic;startFill=1;endArrow=classic;endFill=1;fillColor=#d5e8d4;strokeColor=#82b366;" parent="1" source="Eb74jcbBmfAYv8j1r35D-274" target="Eb74jcbBmfAYv8j1r35D-275" edge="1">
          <mxGeometry relative="1" as="geometry" />
        </mxCell>
        <mxCell id="Eb74jcbBmfAYv8j1r35D-296" style="edgeStyle=orthogonalEdgeStyle;rounded=0;orthogonalLoop=1;jettySize=auto;html=1;exitX=0.5;exitY=1;exitDx=0;exitDy=0;entryX=0.5;entryY=0;entryDx=0;entryDy=0;entryPerimeter=0;strokeWidth=2;startArrow=none;startFill=0;endArrow=classic;endFill=1;fillColor=#d5e8d4;strokeColor=#82b366;" parent="1" source="Eb74jcbBmfAYv8j1r35D-274" target="Eb74jcbBmfAYv8j1r35D-271" edge="1">
          <mxGeometry relative="1" as="geometry" />
        </mxCell>
        <mxCell id="Eb74jcbBmfAYv8j1r35D-274" value="Loader" style="rounded=1;whiteSpace=wrap;html=1;fontSize=16;fillColor=#d5e8d4;strokeColor=#82b366;" parent="1" vertex="1">
          <mxGeometry x="2377" y="927.5" width="160" height="40" as="geometry" />
        </mxCell>
        <mxCell id="Eb74jcbBmfAYv8j1r35D-275" value="State" style="rounded=1;whiteSpace=wrap;html=1;fontSize=16;fillColor=#d5e8d4;strokeColor=#82b366;dashed=1;" parent="1" vertex="1">
          <mxGeometry x="2597" y="837.5" width="80" height="40" as="geometry" />
        </mxCell>
        <mxCell id="Eb74jcbBmfAYv8j1r35D-559" value="Admin_panel" style="verticalAlign=top;align=left;spacingTop=8;spacingLeft=2;spacingRight=12;shape=cube;size=10;direction=south;fontStyle=4;html=1;fontSize=16;fillColor=#647687;fontColor=#ffffff;strokeColor=#314354;" parent="1" vertex="1">
          <mxGeometry x="1840" y="850" width="410" height="80" as="geometry" />
        </mxCell>
        <mxCell id="Eb74jcbBmfAYv8j1r35D-566" value="" style="edgeStyle=orthogonalEdgeStyle;rounded=0;orthogonalLoop=1;jettySize=auto;html=1;exitX=0;exitY=0.5;exitDx=0;exitDy=0;strokeWidth=4;startArrow=classic;startFill=1;endArrow=none;endFill=1;fillColor=#d5e8d4;strokeColor=#82b366;" parent="1" source="Eb74jcbBmfAYv8j1r35D-272" target="Eb74jcbBmfAYv8j1r35D-560" edge="1">
          <mxGeometry relative="1" as="geometry">
            <mxPoint x="2377" y="767.5" as="sourcePoint" />
            <mxPoint x="2190" y="930" as="targetPoint" />
            <Array as="points">
              <mxPoint x="2350" y="768" />
              <mxPoint x="2350" y="1310" />
              <mxPoint x="2190" y="1310" />
            </Array>
          </mxGeometry>
        </mxCell>
        <mxCell id="Eb74jcbBmfAYv8j1r35D-560" value="Async_API" style="rounded=1;whiteSpace=wrap;html=1;fontSize=16;strokeWidth=3;fillColor=#f5f5f5;fontColor=#333333;strokeColor=#666666;" parent="1" vertex="1">
          <mxGeometry x="2150" y="957.5" width="90" height="22.5" as="geometry" />
        </mxCell>
        <mxCell id="Eb74jcbBmfAYv8j1r35D-501" value="Movie_API" style="verticalAlign=top;align=left;spacingTop=8;spacingLeft=2;spacingRight=12;shape=cube;size=10;direction=south;fontStyle=4;html=1;fontSize=16;fillColor=#647687;fontColor=#ffffff;strokeColor=#314354;" parent="1" vertex="1">
          <mxGeometry x="2330" y="1188.75" width="400" height="80" as="geometry" />
        </mxCell>
      </root>
    </mxGraphModel>
  </diagram>
</mxfile>
